# xmcd
#
# Track frame offsets:
#       150
#       19952
#       39460
#       60068
#       82417
#       101216
#       118234
#       134594
#       150207
#       169928
#       189729
#       209237
#       229846
#       252194
#       270993
#       288011
#       304371
#       319985
#
# Disc length: 4526 seconds
#
# Revision: 0
# Processed by: cddbd v1.5.2PL0 Copyright (c) Steve Scherf et al.
# Submitted via: WaveLab 4.01
#
DISCID=0a11ac12
DTITLE=EVERTON DOS SANTOS - CRISTO VIVE EM MIM
DYEAR=2011
DGENRE=GOSPEL
TTITLE0=CRISTO VIVE EM MIM
TTITLE1=TE AMAR É MEU MELHOR PRAZER
TTITLE2=LINDO NOME
TTITLE3=SEMPRE TE SERVIREI
TTITLE4=A PESCA
TTITLE5=MÃO FORTE
TTITLE6=O CHAMADO
TTITLE7=ATRAVÉS DA CRUZ
TTITLE8=DAS TUAS MÃOS EU RECEBO SENHOR
TTITLE9=CRISTO VIVE EM MIM - PB
TTITLE10=TE AMAR É MEU MELHOR PRAZER - PB
TTITLE11=LINDO NOME - PB
TTITLE12=SEMPRE TE SERVIREI - PB
TTITLE13=A PESCA - PB
TTITLE14=MÃO FORTE - PB
TTITLE15=O CHAMADO - PB
TTITLE16=ATRAVÉS DA CRUZ - PB
TTITLE17=DAS TUAS MÃOS EU RECEBO SENHOR - PB
EXTD=
EXTT0=
EXTT1=
EXTT2=
EXTT3=
EXTT4=
EXTT5=
EXTT6=
EXTT7=
EXTT8=
EXTT9=
EXTT10=
EXTT11=
EXTT12=
EXTT13=
EXTT14=
EXTT15=
EXTT16=
EXTT17=
PLAYORDER=
